<?xml version="1.0" encoding="UTF-8"?>
<svg xmlns="http://www.w3.org/2000/svg" xmlns:xlink="http://www.w3.org/1999/xlink" width="512" height="512" viewBox="0 0 56 56" version="1.1"><!-- Generator: Sketch 51.3 (57544) - http://www.bohemiancoding.com/sketch --><title>021 - Extrovert</title><desc>Created with Sketch.</desc><defs/><g id="Page-1" stroke="none" stroke-width="1" fill="none" fill-rule="evenodd"><g id="021---Extrovert" fill="#000000" fill-rule="nonzero"><path d="M35,20.857 C36.0562061,20.8186667 36.8851214,19.9379433 36.8594295,18.8813541 C36.8337377,17.8247649 35.9629962,16.9853701 34.9061752,16.9984169 C33.8493542,17.0114637 32.9996002,17.8720986 33,18.929 C33.0213417,20.0130506 33.9158955,20.8754005 35,20.857 Z" id="Shape"/><path d="M45,23 L50.933,23 C51.4852847,23 51.933,23.4477153 51.933,24 L51.933,25.319 L55.677,21 L51.933,16.681 L51.933,18 C51.933,18.5522847 51.4852847,19 50.933,19 L45,19 L45,23 Z" id="Shape"/><path d="M18.067,24 C18.067,23.4477153 18.5147153,23 19.067,23 L25,23 L25,19 L19.067,19 C18.5147153,19 18.067,18.5522847 18.067,18 L18.067,16.681 L14.323,21 L18.067,25.319 L18.067,24 Z" id="Shape"/><path d="M37,11 L37,5.067 C37,4.51471525 37.4477153,4.067 38,4.067 L39.319,4.067 L35,0.323 L30.681,4.067 L32,4.067 C32.5522847,4.067 33,4.51471525 33,5.067 L33,11 L37,11 Z" id="Shape"/><path d="M35.286,22.857 L34.714,22.857 C32.8839975,22.8590293 31.3274305,24.1920784 31.044,26 L38.956,26 C38.6725695,24.1920784 37.1160025,22.8590293 35.286,22.857 Z" id="Shape"/><path d="M0.6,33.735 C0.861016404,33.9170713 1.13661917,34.0772821 1.424,34.214 C2.277,34.65 3.446,35.248 3.686,36.468 C3.82918406,37.2237094 3.73595159,38.0051861 3.419,38.706 C3.245,39.076 3.065,39.396 2.908,39.672 C2.859,39.758 2.808,39.854 2.757,39.941 C3.172,40.275 3.738,40.699 3.978,40.875 C4.19568419,41.0363089 4.33859797,41.2790429 4.37403559,41.5476525 C4.40947321,41.8162621 4.33440129,42.087755 4.166,42.3 C4.01761396,42.493007 3.88833948,42.6999801 3.78,42.918 C3.849,42.958 3.918,42.998 3.988,43.037 C4.87254397,43.4174365 5.54781232,44.1638818 5.838,45.082 C5.98493135,45.7872637 5.95538984,46.5179007 5.752,47.209 C5.706,47.418 5.659,47.627 5.632,47.836 C5.57367075,48.4411271 5.65403967,49.0515889 5.867,49.621 C6.08790242,50.5427662 6.99373144,51.1286061 7.925,50.952 C10.8392719,50.2514045 13.7107073,49.3832961 16.525,48.352 L16.531,48.352 C17.575,47.998 18.52,47.667 19.264,47.407 C19.955,47.166 20.476,46.984 20.747,46.897 C24.905,45.582 25.747,44.081 25.724,43.052 C25.7110213,42.4997153 26.1482153,42.0414787 26.7005,42.0285 C27.2527847,42.0155213 27.7110213,42.4527153 27.724,43.005 C27.782,45.497 25.64,47.448 21.355,48.805 C21.097,48.888 20.593,49.064 19.924,49.297 L19.024,49.613 C20.6721626,51.4422408 21.8742417,53.6283681 22.536,56 L45.218,55.937 L45.151,55.837 C44.8629147,55.4221101 44.6039597,54.987734 44.376,54.537 C43.8786739,53.5263955 43.4636619,52.4773282 43.135,51.4 C42.5282684,49.3530291 42.1072324,47.2555471 41.877,45.133 C41.6404939,43.1350698 41.7279515,41.1120651 42.136,39.142 L35.655,44.759 C35.2791142,45.0848282 34.7208858,45.0848282 34.345,44.759 L27.345,38.692 C27.0268819,38.4191163 26.9126866,37.9768063 27.0589449,37.5840301 C27.2052032,37.1912539 27.5808796,36.9313577 28,36.933 L31,36.933 L31,32 C31,30.8954305 31.8954305,30 33,30 L37,30 C38.1045695,30 39,30.8954305 39,32 L39,36.933 L42,36.933 C42.2398741,36.935747 42.4705552,37.0256736 42.649,37.186 C42.847453,36.5489897 43.079103,35.9228002 43.343,35.31 C44.141408,33.6408155 45.1288779,32.0688493 46.286,30.625 C46.866,29.843 47.466,29.035 47.986,28.214 C48.6295679,27.213774 49.1386109,26.1331503 49.5,25 L45,25 C43.8954305,25 43,24.1045695 43,23 L43,19 C43,17.8954305 43.8954305,17 45,17 L49.914,17 C49.7645128,15.6897711 49.5117261,14.3934031 49.158,13.123 C48.2687254,10.08907 46.4129937,7.42854421 43.873,5.546 C43.573,5.31 43.273,5.085 42.973,4.866 C43.0374772,5.15976464 42.9647768,5.46690666 42.7754513,5.70059624 C42.5861257,5.93428583 42.3007498,6.06912706 42,6.067 L39,6.067 L39,11 C39,12.1045695 38.1045695,13 37,13 L33,13 C31.8954305,13 31,12.1045695 31,11 L31,6.067 L28,6.067 C27.5823587,6.06717896 27.2085894,5.80779132 27.0626298,5.41648575 C26.9166701,5.02518019 27.0292631,4.58437611 27.345,4.311 L32.1,0.189 C30.780318,0.0144070044 29.4474356,-0.0391492955 28.118,0.029 C24.9632541,0.250197065 21.8289003,0.701733854 18.74,1.38 C14.704,2.18 11.689,3.615 9.776,5.637 C8.19716519,7.32960767 6.97673014,9.32386929 6.188,11.5 C5.85614522,12.4674021 5.58396707,13.4542566 5.373,14.455 L5.273,14.881 C5.03242184,15.790144 4.70456527,16.6739167 4.294,17.52 C4.106,17.94 3.917,18.36 3.754,18.788 C3.65950369,19.0048357 3.60691104,19.2376006 3.599,19.474 C3.643,19.798 4.025,20.148 4.429,20.519 C5.25493667,21.1015488 5.78786015,22.0134644 5.89,23.019 C5.86993297,23.4934145 5.73617951,23.9560643 5.5,24.368 C4.24784001,27.0034832 2.71353526,29.4953873 0.924,31.8 C0.162,32.731 0,33.1 0,33.249 C0.184875894,33.4288287 0.385700599,33.5914967 0.6,33.735 Z M29,26.571 C29.0023611,24.4613353 30.1657724,22.5242383 32.027,21.531 C31.3711236,20.8227403 31.0046675,19.8942896 31,18.929 C31,16.719861 32.790861,14.929 35,14.929 C37.209139,14.929 39,16.719861 39,18.929 C38.9948329,19.8935982 38.6284112,20.8212482 37.973,21.529 C39.8348601,22.5225767 40.9983764,24.4606174 41,26.571 L41,27 C41,27.5522847 40.5522847,28 40,28 L30,28 C29.4477153,28 29,27.5522847 29,27 L29,26.571 Z M19.417,13.063 C19.8079761,13.2090813 20.0671045,13.5826249 20.067,14 L20.067,17 L25,17 C26.1045695,17 27,17.8954305 27,19 L27,23 C27,24.1045695 26.1045695,25 25,25 L20.067,25 L20.067,28 C20.0671045,28.4173751 19.8079761,28.7909187 19.417,28.937 C19.304928,28.978353 19.1864575,28.9996777 19.067,29 C18.7768859,29.0001077 18.5010247,28.8742186 18.311,28.655 L12.244,21.655 C11.9181718,21.2791142 11.9181718,20.7208858 12.244,20.345 L18.311,13.345 C18.584551,13.0291748 19.025623,12.9167134 19.417,13.063 Z M7.22,15.34 L7.32,14.907 C7.51314883,13.9905545 7.76024556,13.086314 8.06,12.199 C8.75567219,10.274706 9.83288063,8.51076444 11.227,7.013 C12.7595511,5.5356103 14.6468677,4.47795529 16.707,3.942 C17.2352604,3.78073285 17.7942329,4.07823964 17.9555,4.6065 C18.1167671,5.13476036 17.8192604,5.69373285 17.291,5.855 C15.56399,6.29262258 13.9772482,7.16378169 12.681,8.386 C11.4731212,9.6862822 10.5398535,11.2167868 9.937,12.886 C9.66663271,13.6961058 9.44326107,14.5211451 9.268,15.357 L9.168,15.79 C9.09556221,16.1462816 8.83546182,16.4351776 8.48871332,16.5444903 C8.14196483,16.653803 7.76320675,16.5663076 7.49953637,16.3159843 C7.235866,16.0656611 7.12883089,15.6919545 7.22,15.34 Z M7,18 C7.55228475,18 8,18.4477153 8,19 C8,19.5522847 7.55228475,20 7,20 C6.44771525,20 6,19.5522847 6,19 C6,18.4477153 6.44771525,18 7,18 Z" id="Shape"/><path d="M33,32 L33,37.933 C33,38.4852847 32.5522847,38.933 32,38.933 L30.681,38.933 L35,42.677 L39.319,38.933 L38,38.933 C37.4477153,38.933 37,38.4852847 37,37.933 L37,32 L33,32 Z" id="Shape"/></g></g></svg>
